<?xml version="1.0" standalone="no"?>
<!DOCTYPE svg PUBLIC "-//W3C//DTD SVG 20010904//EN"
 "http://www.w3.org/TR/2001/REC-SVG-20010904/DTD/svg10.dtd">
<svg version="1.0" xmlns="http://www.w3.org/2000/svg"
 width="199.000000pt" height="198.000000pt" viewBox="0 0 199.000000 198.000000"
 preserveAspectRatio="xMidYMid meet">

<g transform="translate(0.000000,198.000000) scale(0.100000,-0.100000)"
fill="#000000" stroke="none">
<path d="M5 990 c0 -547 1 -771 2 -497 2 273 2 721 0 995 -1 273 -2 49 -2
-498z"/>
<path d="M1002 1475 l-94 -53 74 -42 c40 -23 83 -49 95 -56 12 -8 25 -14 28
-14 3 0 5 50 5 110 0 61 -3 110 -7 109 -5 0 -50 -24 -101 -54z"/>
<path d="M1130 1419 c0 -61 3 -109 8 -107 32 14 182 103 182 108 0 6 -174 110
-184 110 -3 0 -6 -50 -6 -111z"/>
<path d="M1468 1477 c-49 -28 -88 -54 -88 -57 0 -5 8 -10 123 -74 l67 -38 0
111 c0 61 -3 111 -7 110 -5 0 -47 -24 -95 -52z"/>
<path d="M910 1280 c0 -61 2 -110 5 -110 17 0 185 104 178 111 -4 4 -47 30
-95 58 l-88 50 0 -109z"/>
<path d="M1370 1280 c0 -61 3 -110 6 -110 16 0 183 105 176 111 -4 4 -46 30
-94 58 l-88 50 0 -109z"/>
<path d="M1227 1329 c-48 -28 -87 -53 -85 -54 6 -6 180 -105 184 -105 2 0 4
47 4 105 0 58 -3 105 -7 105 -5 0 -48 -23 -96 -51z"/>
<path d="M552 1193 l-94 -55 29 -17 c15 -10 58 -34 96 -55 l67 -38 1 79 c1 43
2 91 3 106 2 15 0 29 -3 31 -3 2 -48 -21 -99 -51z"/>
<path d="M1002 1193 l-93 -56 93 -53 c51 -29 96 -54 101 -54 4 0 7 50 7 110 0
61 -3 110 -7 109 -5 -1 -50 -26 -101 -56z"/>
<path d="M1130 1141 c0 -61 2 -111 5 -111 11 0 185 102 185 108 0 7 -7 11
-123 76 l-67 38 0 -111z"/>
<path d="M450 990 c0 -60 3 -110 8 -110 4 0 49 25 101 54 l93 54 -95 56 c-52
31 -98 56 -101 56 -3 0 -6 -49 -6 -110z"/>
<path d="M910 990 l0 -112 68 38 c119 66 124 70 110 81 -7 5 -35 22 -63 38
-27 15 -65 36 -82 47 l-33 20 0 -112z"/>
<path d="M1241 1050 c-46 -27 -87 -52 -92 -57 -4 -4 33 -31 84 -60 l92 -51 3
54 c2 30 2 78 0 108 l-3 54 -84 -48z"/>
<path d="M1370 989 l0 -111 68 38 c37 21 80 45 96 55 l28 17 -38 24 c-22 13
-65 39 -96 56 l-58 32 0 -111z"/>
<path d="M558 906 c-48 -28 -89 -53 -92 -56 -4 -5 173 -110 185 -110 4 0 1
212 -3 215 -2 1 -42 -21 -90 -49z"/>
<path d="M680 849 c0 -61 4 -109 8 -107 28 11 182 103 182 108 0 3 -19 16 -42
27 -24 12 -67 36 -95 53 l-53 30 0 -111z"/>
<path d="M1002 903 l-93 -56 93 -53 c51 -29 96 -54 101 -54 4 0 7 50 7 110 0
61 -3 110 -7 109 -5 -1 -50 -26 -101 -56z"/>
<path d="M1130 851 c0 -61 2 -111 5 -111 11 0 185 103 185 109 0 6 -7 11 -123
75 l-67 38 0 -111z"/>
<path d="M790 760 c-47 -28 -86 -54 -88 -59 -2 -7 168 -111 183 -111 3 0 5 50
5 110 0 61 -3 110 -7 109 -5 0 -46 -22 -93 -49z"/>
<path d="M910 700 l0 -111 63 36 c34 20 77 43 95 52 17 9 32 20 32 23 0 3 -15
14 -32 23 -18 9 -61 32 -95 52 l-63 36 0 -111z"/>
<path d="M1255 769 c-133 -77 -131 -63 -24 -124 l94 -54 3 55 c2 30 2 79 0
109 l-3 54 -70 -40z"/>
<path d="M1010 620 c-47 -28 -86 -53 -87 -57 -3 -7 168 -113 182 -113 3 0 5
50 5 110 0 61 -3 110 -7 109 -5 0 -46 -22 -93 -49z"/>
<path d="M1130 560 l0 -112 78 43 c97 53 112 62 112 70 0 4 -155 96 -182 107
-4 2 -8 -47 -8 -108z"/>
</g>
</svg>
